<svg xmlns="http://www.w3.org/2000/svg" width="446.443" height="607.085" viewBox="0 0 446.443 607.085">
  <path id="bg-icon" d="M861.578,708.589A163.774,163.774,0,0,0,851.9,689.8c-14.11-23.513-32.079-42.6-53.4-56.714-28.339-18.763-62.745-28.813-102.255-29.865l-.188-.007-.139-.111H646.292l3.524-1.128a173.756,173.756,0,0,0,47.179-23.255c23.422-16.5,40.674-36.049,51.267-58.106a128.732,128.732,0,0,0,12.418-69.675c-2.361-24.119-11.116-46.621-26.013-66.882-14.891-20.176-36.614-37.164-64.563-50.494-27.963-13.3-62.655-20.037-103.119-20.037H429v4.158c11.317,9.584,16.374,22.8,16.374,42.819V774.3c-.09,19.738-5.14,32.8-16.36,42.3v4.158l58.4.007v-4.158c-11.025-9.333-16.067-22.05-16.339-41.182V318.907h96.67c16.611,0,41.941,2.006,68.31,11.541,34.754,12.571,61.122,34.461,78.367,65.071a140.067,140.067,0,0,1,0,136.5c-11.812,20.915-29.614,38.585-52.9,52.521-19.32,11.54-46.37,20.079-70.719,22.329v4.179c24.39,1,38.4,9.695,67.46,55.251,12.4,19.431,96.51,149.051,100.751,154.47l43.48-.007v-4.053c-8.107-3.518-14.814-6.756-41.057-41.517l-115.5-164.854H691.5c65.608,0,102.806,31.606,122.453,58.12,24.6,33.194,33.361,73.339,33.361,99.839,0,53.064-21.375,93.209-63.525,119.333-32.811,20.337-71.834,26.7-97.506,26.7H602.191c-15.044-.523-25.832-2.71-32.079-6.5-6.331-3.872-9.542-14.062-9.542-30.282l-.091-390.141C560.968,469,566,456.7,576.8,447.559V443.4H519.361v4.158c10.419,8.817,15.427,20.476,16.241,37.756V873.645c0,20.01-5.049,33.236-16.367,42.812v4.158H686.206c66.861,0,117.4-17.043,150.215-50.662,33.953-34.781,39.023-77.865,39.023-100.459C875.437,750.182,870.778,729.685,861.578,708.589Z" transform="translate(-429 -313.53)" fill="#2e3740" opacity="0.04"/>
</svg>
