<svg xmlns="http://www.w3.org/2000/svg" width="1128.892" height="123.72" viewBox="0 0 1128.892 123.72">
  <g id="logo-full" transform="translate(-185.56 -688.28)">
    <path id="Path_1" data-name="Path 1" d="M480.95,801.17a63.7,63.7,0,0,1-26.92,6.06,64.762,64.762,0,0,1-22.56-4.07,57.962,57.962,0,0,1-19.53-12.05,60.51,60.51,0,0,1-13.75-19.53,63.88,63.88,0,0,1-5.22-26.35,51.936,51.936,0,0,1,17.84-40.5,55.667,55.667,0,0,1,18.3-10.53,64.192,64.192,0,0,1,21.14-3.6,62.581,62.581,0,0,1,26.26,5.78,52.45,52.45,0,0,1,21.1,17.86h.7v-9.78a84.052,84.052,0,0,0-23.33-11.75,81.7,81.7,0,0,0-24.54-3.87,73.943,73.943,0,0,0-24.15,3.96,61.156,61.156,0,0,0-20.37,11.7,56.951,56.951,0,0,0-14.14,19.04,60.7,60.7,0,0,0-5.28,25.84,62.646,62.646,0,0,0,5.37,26.5,59.182,59.182,0,0,0,14.24,19.52,60.729,60.729,0,0,0,20.27,11.97,69.035,69.035,0,0,0,53.39-2.83,63.026,63.026,0,0,0,24.7-21.28l-1.43-.95A55.911,55.911,0,0,1,480.95,801.17Z" fill="#fff"/>
    <path id="Path_2" data-name="Path 2" d="M448.39,715.96a31.231,31.231,0,0,0-22.55,13.02,35.015,35.015,0,0,0-5.79,19.51c-.08,11.6,5.1,22.36,13.53,28.07a34.245,34.245,0,0,0,34.65,1.05,31.717,31.717,0,0,0,14.22-19.77,36.219,36.219,0,0,0-.98-21.06c-.31-.85-.67-1.7-1.05-2.52A31.684,31.684,0,0,0,448.39,715.96Zm23.53,55.76a20.166,20.166,0,0,1-10.81,5.55,35.139,35.139,0,0,1-4.75.33,29.585,29.585,0,0,1-22.96-10.53,36.085,36.085,0,0,1-8.08-18.98,28.589,28.589,0,0,1,6.13-22c4.6-5.8,14-8.9,21.86-7.21a30.078,30.078,0,0,1,17.45,11.4,37.214,37.214,0,0,1,7.62,19.57C479.14,759.36,476.97,766.72,471.92,771.72Z" fill="#fff"/>
    <path id="Path_3" data-name="Path 3" d="M725.25,804.06a11.735,11.735,0,0,1-6.51,3.26,68.86,68.86,0,0,1-11.09.66H675.32c-3.41-.12-5.92-.64-7.46-1.53-1.56-.92-2.35-3.32-2.35-7.15V747.89h30.75c4.62.03,7.68,1.21,9.92,3.85h.93v-9.62h-.93c-2.14,2.52-5.01,3.71-9.29,3.83H665.5V692.3h38.86a91.929,91.929,0,0,1,10.33.47,11.214,11.214,0,0,1,6.62,3.08,17.4,17.4,0,0,1,2.77,3.65h1.62l-2.63-8.95H654.24v.93c2.61,2.22,3.8,5.25,3.84,9.81v98.44c-.16,4.16-1.35,6.96-3.83,9.07v.93h72.58l2.93-9.99h-1.57A16.529,16.529,0,0,1,725.25,804.06Z" fill="#fff"/>
    <path id="Path_4" data-name="Path 4" d="M1311.09,761.85a34.81,34.81,0,0,0-11.76-12.89c-5.31-3.62-12.12-5.78-20.25-6.41l-1.01-.08.99-.25a27.661,27.661,0,0,0,12.42-6.48,25.873,25.873,0,0,0,6.86-10.34,26.491,26.491,0,0,0,1.22-11.93,24.5,24.5,0,0,0-4.32-11.27,26.979,26.979,0,0,0-9.97-8.36,33.985,33.985,0,0,0-15.61-3.29h-46.99v.93c2.31,1.96,3.48,4.48,3.77,8.16l.07,99.34c-.04,4.57-1.23,7.6-3.84,9.82v.93h51.34c8.62,0,15.98-1.59,21.86-4.71a35.4,35.4,0,0,0,13.46-11.86,31.691,31.691,0,0,0,5.08-15.52A31.086,31.086,0,0,0,1311.09,761.85Zm-77.18-69.55h35.72c5.17,0,9.53,1.25,12.95,3.72a23.646,23.646,0,0,1,7.71,9.24,27.441,27.441,0,0,1,2.48,12.08,29.662,29.662,0,0,1-2.66,12.07,23.547,23.547,0,0,1-7.72,9.24c-3.41,2.47-7.77,3.72-12.95,3.72h-35.53V692.3Zm68.58,99.43a31.107,31.107,0,0,1-10.74,11.88c-4.73,3.15-10.71,4.75-17.77,4.75h-30.26c-3.56-.12-6.1-.64-7.56-1.53-1.52-.92-2.26-3.26-2.26-7.14V744.12h40.07c7.18,0,13.22,1.6,17.96,4.75a31.26,31.26,0,0,1,10.74,11.88,33.13,33.13,0,0,1,3.52,15.49A34.732,34.732,0,0,1,1302.49,791.73Z" fill="#fff"/>
    <path id="Path_5" data-name="Path 5" d="M266.92,799.07h0l-26.39-39.52-.65-.94.22-.06a41.013,41.013,0,0,0,12.22-5.7,35.876,35.876,0,0,0,12.04-13.65,30.259,30.259,0,0,0,2.92-16.36,31.46,31.46,0,0,0-6.11-15.71c-3.5-4.74-8.6-8.73-15.17-11.86s-14.72-4.71-24.23-4.71H185.56v.94c2.66,2.26,3.85,5.37,3.85,10.08v97.28c-.02,4.64-1.21,7.72-3.85,9.96v.93h15.3v-.93c-2.59-2.2-3.78-5.19-3.84-9.69V760.97h27.9c7.58,0,8.78.93,16.16,12.49,2.9,4.54,22.58,34.88,23.67,36.3h11.81v-.9C274.67,808.01,273.08,807.22,266.92,799.07ZM221.78,759.2H206.84c-3.55,0-6.09-.49-7.56-1.45-1.52-.99-2.25-3.35-2.25-7.22V692.3h23.3c16.13,0,28.06,6.05,34.51,17.48a32.942,32.942,0,0,1,0,32.12,34,34,0,0,1-12.45,12.36C236.9,757.54,229.97,759.2,221.78,759.2Z" fill="#fff"/>
    <path id="Path_6" data-name="Path 6" d="M835,799.07h0l-26.39-39.52-.66-.94.22-.06a41.129,41.129,0,0,0,12.22-5.7,35.875,35.875,0,0,0,12.04-13.65,30.259,30.259,0,0,0,2.92-16.36,31.46,31.46,0,0,0-6.11-15.71c-3.5-4.74-8.6-8.73-15.17-11.86s-14.72-4.71-24.23-4.71H753.63v.94c2.66,2.26,3.85,5.37,3.85,10.08v97.28c-.02,4.64-1.21,7.72-3.85,9.96v.93h15.3v-.93c-2.59-2.2-3.78-5.19-3.84-9.69V760.97h27.9c7.58,0,8.78.93,16.16,12.49,2.9,4.54,22.58,34.88,23.68,36.3h11.81v-.9C842.75,808.01,841.16,807.22,835,799.07ZM789.86,759.2H774.92c-3.55,0-6.09-.49-7.56-1.45-1.52-.99-2.25-3.35-2.25-7.22V692.3h23.3c16.13,0,28.06,6.05,34.51,17.48a32.942,32.942,0,0,1,0,32.12,34,34,0,0,1-12.45,12.36C804.98,757.54,798.05,759.2,789.86,759.2Z" fill="#fff"/>
    <path id="Path_7" data-name="Path 7" d="M1198.82,798.8h0c-.29-.54-.58-1.1-.89-1.69l-48.38-108.83-.67.02-.01.07-29.12,66.19c-3.66,8.18-7.16,15.78-10.41,22.6a113.989,113.989,0,0,1-9.56,16.76,39.021,39.021,0,0,1-10.45,10.44,23.633,23.633,0,0,1-13.04,3.62H1050c-3.54-.12-6.08-.64-7.56-1.53-1.5-.92-2.26-3.32-2.26-7.14V700.87c.11-4.33,1.3-7.23,3.84-9.38v-.93h-15.07v.93c2.45,2.08,3.63,4.82,3.82,8.89v98.35c0,4.71-1.19,7.82-3.85,10.08v.93h47.37a28.361,28.361,0,0,0,13.26-2.91,33.6,33.6,0,0,0,10.34-8.85,84.17,84.17,0,0,0,9.35-15.01c3.01-6.02,6.38-13.28,10.01-21.55l.04-.1h55.25l20.84,48.42h11.89v-.9C1205.75,808.2,1203.44,807.09,1198.82,798.8Zm-78.53-39.6.1-.23c.63-1.4,1.23-2.76,1.79-4.07.47-1.1,1.1-2.55,1.8-4.07l22.84-51.78.15.34,26.77,59.81h-53.45Z" fill="#fff"/>
    <path id="Path_8" data-name="Path 8" d="M618.79,691.43a8.831,8.831,0,0,1,2.84,1.23c2.13,1.67,1.75,5.13,1.48,6.54a50.544,50.544,0,0,1-3.13,9.21l-41.56,94.14-.15-.34-41.6-93.23c-1.76-4.01-3.07-7.2-3.88-9.47a11.194,11.194,0,0,1-.91-4.85c.58-2.1,2.1-2.59,3.7-3.09.14-.04.27-.09.41-.13v-.89H516.1v.87a8.4,8.4,0,0,1,4.22,2.22l.05.04.01.06a14.533,14.533,0,0,1,3.04,3.45,61.978,61.978,0,0,1,3.32,5.97L575.11,812h1.3l48.17-109.2a45.342,45.342,0,0,1,4.43-8.06l.1-.13.02.01a8.779,8.779,0,0,1,4.92-3.2v-.88H618.78C618.79,690.79,618.79,691.22,618.79,691.43Z" fill="#fff"/>
    <path id="Path_9" data-name="Path 9" d="M938.07,691.51a6.331,6.331,0,0,1,3.53,3.34c.66,1.67.41,3.67-.72,5.94-1,2-35.44,60.55-36.9,63.04l-.14.24-.14-.24-32.3-55.95-6.22-11.34a3.663,3.663,0,0,1-.21-3.07,4.116,4.116,0,0,1,2.6-2.04v-.89H851.58v.87a7.915,7.915,0,0,1,5.04,3.47l8.86,15.9,32.01,55.95-.17-.02v32.14c-.02,4.64-1.21,7.72-3.85,9.96v.94h15.3v-.93c-2.65-2.25-3.83-5.33-3.85-10V765.86l.02-.04,36.71-62.41c.24-.39.47-.79.71-1.18,2.87-4.81,5.58-9.37,9.46-10.78v-.89H938.07v.95Z" fill="#fff"/>
    <path id="Path_10" data-name="Path 10" d="M367.22,804.06a11.735,11.735,0,0,1-6.51,3.26,68.86,68.86,0,0,1-11.09.66H317.29c-3.41-.12-5.92-.64-7.46-1.53-1.56-.92-2.35-3.32-2.35-7.15V747.89h30.75c4.62.03,7.68,1.21,9.92,3.85h.93v-9.62h-.93c-2.14,2.52-5.01,3.71-9.29,3.83H307.48V692.3h38.86a91.928,91.928,0,0,1,10.33.47,11.214,11.214,0,0,1,6.62,3.08,17.4,17.4,0,0,1,2.77,3.65h1.62l-2.63-8.95H296.22v.93c2.61,2.22,3.8,5.24,3.84,9.81v98.44c-.16,4.16-1.35,6.96-3.83,9.07v.93h72.58l2.93-9.99h-1.57A16.785,16.785,0,0,1,367.22,804.06Z" fill="#fff"/>
  </g>
</svg>
