<svg xmlns="http://www.w3.org/2000/svg" width="1128.844" height="124.02" viewBox="0 0 1128.844 124.02">
  <g id="logo-full-dark" transform="translate(-185.58 -687.99)">
    <path id="Path_1" data-name="Path 1" d="M480.96,800.86a63.231,63.231,0,0,1-26.85,6.05,64.234,64.234,0,0,1-22.5-4.06,57.8,57.8,0,0,1-19.47-12.01,60.1,60.1,0,0,1-13.71-19.47,63.412,63.412,0,0,1-5.2-26.28,51.807,51.807,0,0,1,17.78-40.36,55.092,55.092,0,0,1,18.24-10.49,63.744,63.744,0,0,1,21.08-3.59,62.213,62.213,0,0,1,26.19,5.76,52.122,52.122,0,0,1,21.08,17.87h.95V704.26a84.074,84.074,0,0,0-23.44-11.82,81.46,81.46,0,0,0-24.58-3.88,73.679,73.679,0,0,0-24.2,3.97,61.19,61.19,0,0,0-20.42,11.72,56.987,56.987,0,0,0-14.18,19.09,60.566,60.566,0,0,0-5.29,25.9q0,14.94,5.38,26.56a59.174,59.174,0,0,0,14.28,19.57,60.634,60.634,0,0,0,20.32,12,69.187,69.187,0,0,0,53.5-2.83,62.984,62.984,0,0,0,24.85-21.46l-1.7-1.13A55.563,55.563,0,0,1,480.96,800.86Z"/>
    <path id="Path_2" data-name="Path 2" d="M448.46,715.67a31.489,31.489,0,0,0-22.66,13.09,35,35,0,0,0-5.82,19.6c-.08,10.87,4.6,22.1,13.59,28.2a34.352,34.352,0,0,0,34.81,1.05c7.22-4.25,12.26-11.74,14.29-19.86a36.326,36.326,0,0,0-.98-21.15c-.31-.86-.67-1.7-1.05-2.53A31.955,31.955,0,0,0,448.46,715.67Zm12.71,61.28c-10.72,1.46-20.48-1.9-27.55-10.15a35.666,35.666,0,0,1-8.04-18.88,28.583,28.583,0,0,1,6.09-21.87c4.89-6.16,14.36-8.73,21.69-7.14,14.14,3.05,23.82,16.92,24.93,30.81C480.07,771.91,465.14,776.41,461.17,776.95Z"/>
    <path id="Path_3" data-name="Path 3" d="M725.14,803.78a11.554,11.554,0,0,1-6.42,3.22,69.113,69.113,0,0,1-11.06.66H675.34c-3.41-.12-5.86-.63-7.38-1.51s-2.27-3.22-2.27-7V747.92h30.58c4.9.03,7.76,1.37,9.84,3.84h1.18v-9.95h-1.18c-1.99,2.37-4.7,3.7-9.22,3.83h-31.2V692.33h38.68a90.548,90.548,0,0,1,10.31.47,11.054,11.054,0,0,1,6.52,3.03,16.678,16.678,0,0,1,2.78,3.7h1.94l-2.72-9.27H654.1v1.18c2.46,2.06,3.79,4.9,3.84,9.73v98.36h0v.05c-.17,4.38-1.49,7.03-3.83,8.99v1.18h72.85l3.02-10.31h-1.89A16.113,16.113,0,0,1,725.14,803.78Z"/>
    <path id="Path_4" data-name="Path 4" d="M1311.07,761.63a34.723,34.723,0,0,0-11.82-12.95q-8.025-5.475-20.32-6.43a27.486,27.486,0,0,0,12.48-6.52,25.791,25.791,0,0,0,6.9-10.4,26.533,26.533,0,0,0,1.22-12,24.494,24.494,0,0,0-4.35-11.35,27.088,27.088,0,0,0-10.02-8.41q-6.42-3.315-15.69-3.31h-47.14v1.18c2.17,1.82,3.46,4.24,3.77,8.1l.07,99.29c-.05,4.83-1.38,7.68-3.84,9.74v1.18h51.49q13.035,0,21.93-4.73a35.485,35.485,0,0,0,13.52-11.91,31.7,31.7,0,0,0,5.1-15.6A30.672,30.672,0,0,0,1311.07,761.63Zm-77.14-69.29h35.55q7.74,0,12.85,3.68a23.376,23.376,0,0,1,7.65,9.17,27.176,27.176,0,0,1,2.46,12.01,29.2,29.2,0,0,1-2.65,12,23.262,23.262,0,0,1-7.66,9.17q-5.1,3.69-12.85,3.68h-35.35Zm68.25,99.16a30.845,30.845,0,0,1-10.68,11.82q-7.095,4.725-17.68,4.72h-30.25q-5.3-.18-7.47-1.51c-1.45-.88-2.18-3.22-2.18-7V744.14h39.89q10.785,0,17.86,4.72a30.96,30.96,0,0,1,10.69,11.82,32.856,32.856,0,0,1,3.5,15.41A34.248,34.248,0,0,1,1302.18,791.5Z"/>
    <path id="Path_5" data-name="Path 5" d="M267.2,798.82l-26.37-39.5-.53-.75a40.983,40.983,0,0,0,12.27-5.73,35.794,35.794,0,0,0,12.09-13.71,30.289,30.289,0,0,0,2.93-16.45,31.482,31.482,0,0,0-6.14-15.79q-5.295-7.17-15.22-11.91t-24.29-4.72H185.58v1.18c2.51,2.1,3.85,5,3.85,10v97.25c-.02,4.92-1.36,7.8-3.85,9.88v1.18H201.2v-1.18c-2.44-2.04-3.77-4.86-3.84-9.62V760.97h27.73c7.54,0,8.74,1.01,16.01,12.41,2.79,4.37,23.55,36.37,23.73,36.37h12.04v-1.18C274.88,807.7,273.34,806.95,267.2,798.82Zm-45.26-39.93H207c-3.53,0-6.02-.48-7.47-1.42s-2.18-3.31-2.18-7.08V692.35h23.13c6.29,0,24.94.69,34.35,17.39a32.822,32.822,0,0,1,0,31.95,33.579,33.579,0,0,1-12.39,12.29Q234.235,758.885,221.94,758.89Z"/>
    <path id="Path_6" data-name="Path 6" d="M835.11,798.82l-26.37-39.5-.53-.75a40.983,40.983,0,0,0,12.27-5.73,35.794,35.794,0,0,0,12.09-13.71,30.288,30.288,0,0,0,2.93-16.45,31.482,31.482,0,0,0-6.14-15.79q-5.3-7.17-15.22-11.91t-24.29-4.72H753.49v1.18c2.51,2.1,3.85,5,3.85,10v97.25c-.02,4.92-1.36,7.8-3.84,9.88v1.18h15.62v-1.18c-2.44-2.04-3.77-4.86-3.84-9.62V760.97h27.73c7.54,0,8.74,1.01,16.01,12.41,2.79,4.37,23.55,36.37,23.73,36.37h12.04v-1.18C842.79,807.7,841.25,806.95,835.11,798.82Zm-45.26-39.93H774.92c-3.53,0-6.02-.48-7.47-1.42s-2.18-3.31-2.18-7.08V692.35H788.4c6.29,0,24.94.69,34.35,17.39a32.822,32.822,0,0,1,0,31.95,33.579,33.579,0,0,1-12.39,12.29Q802.14,758.885,789.85,758.89Z"/>
    <path id="Path_7" data-name="Path 7" d="M1198.84,798.56c-.29-.53-.58-1.09-.89-1.68l-48.4-108.89h-.94v.18l-29.12,66.17q-5.67,12.675-10.4,22.59a112.943,112.943,0,0,1-9.55,16.73,38.8,38.8,0,0,1-10.4,10.39,23.335,23.335,0,0,1-12.95,3.59h-26.28c-3.53-.12-6.02-.63-7.47-1.51s-2.18-3.22-2.18-7V700.72c.12-4.57,1.45-7.3,3.84-9.3v-1.18h-15.4v1.18c2.3,1.93,3.62,4.54,3.82,8.82v98.31c0,5-1.34,7.9-3.85,10v1.18h47.52a28.355,28.355,0,0,0,13.33-2.93,33.755,33.755,0,0,0,10.39-8.88,83.417,83.417,0,0,0,9.36-15.03q4.53-9.075,10.02-21.55h55.02l20.83,48.4h12.16v-1.18C1205.78,807.93,1203.49,806.92,1198.84,798.56Zm-78.4-39.67c.62-1.38,1.22-2.75,1.79-4.07s1.16-2.68,1.8-4.06l22.69-51.42,26.65,59.56h-52.93Z"/>
    <path id="Path_8" data-name="Path 8" d="M618.66,691.44a8.76,8.76,0,0,1,2.9,1.23c1.83,1.44,1.81,4.32,1.42,6.38a50.114,50.114,0,0,1-3.12,9.17l-41.4,93.77-41.59-93.2q-2.655-6.045-3.88-9.45a11.079,11.079,0,0,1-.91-4.77c.61-2.21,2.3-2.53,4.11-3.13v-1.18H516v1.18a8.059,8.059,0,0,1,4.27,2.21c0,.02.01.04.01.06a14.309,14.309,0,0,1,3.06,3.46,61.153,61.153,0,0,1,3.31,5.95l48.4,108.89h1.52l48.2-109.27a45.227,45.227,0,0,1,4.41-8.02l.01.01a8.717,8.717,0,0,1,5.06-3.29v-1.18H618.66Z"/>
    <path id="Path_9" data-name="Path 9" d="M937.85,691.5c1.17.44,6,2.75,2.83,9.08-1.01,2.01-36.89,63.01-36.89,63.01L871.5,707.65l-6.22-11.33c-1.18-2.65.17-4.18,2.41-4.91v-1.18H851.37v1.18a7.664,7.664,0,0,1,5.06,3.42h0l8.85,15.88,31.84,55.65h-.03v32.32c-.02,4.92-1.36,7.8-3.85,9.88v1.18h15.63v-1.18c-2.49-2.09-3.83-4.97-3.85-9.92V765.73l36.7-62.39c3.15-5.24,5.99-10.47,10.18-11.92h0v-1.17H937.82v1.25Z"/>
    <path id="Path_10" data-name="Path 10" d="M367.21,803.78a11.554,11.554,0,0,1-6.42,3.22,69.113,69.113,0,0,1-11.06.66H317.41c-3.41-.12-5.86-.63-7.38-1.51s-2.27-3.22-2.27-7V747.92h30.58c4.9.03,7.76,1.37,9.84,3.84h1.18v-9.95h-1.18c-1.99,2.37-4.7,3.7-9.22,3.83h-31.2V692.33h38.68a90.548,90.548,0,0,1,10.31.47,11.054,11.054,0,0,1,6.52,3.03,16.677,16.677,0,0,1,2.78,3.7H368l-2.72-9.27h-69.1v1.18c2.46,2.06,3.79,4.9,3.84,9.73v98.36h0v.05c-.17,4.38-1.49,7.03-3.83,8.99v1.18h72.85l3.02-10.31h-1.89A16.121,16.121,0,0,1,367.21,803.78Z"/>
  </g>
</svg>
