<svg xmlns="http://www.w3.org/2000/svg" width="190.932" height="259.465" viewBox="0 0 190.932 259.465">
  <path id="logo-dark" d="M615.16,483.341c-11.9-26.909-42.215-44.924-72.915-44.924l-17.95-.048a74.234,74.234,0,0,0,20.192-9.954q15.079-10.621,21.948-24.882a54.917,54.917,0,0,0,5.319-29.851,57.04,57.04,0,0,0-11.141-28.653Q551,332,532.979,323.414q-18.013-8.568-44.093-8.574H429.78v2.135c4.549,3.81,6.982,9.081,6.982,18.15V511.636c-.039,8.935-2.465,14.155-6.979,17.932V531.7l25.4,0v-2.135c-4.43-3.709-6.848-8.816-6.97-17.455V318.167h40.989c11.424,0,45.27,1.693,62.353,32.016a59.515,59.515,0,0,1,0,57.985Q544,421.553,529.08,430.48a75.485,75.485,0,0,1-30.29,9.513v2.245c10.917.391,16.719,4.5,28.817,23.463,5.062,7.933,42.739,66.008,43.079,66.008l18.9,0v-2.135c-3.613-1.568-6.416-2.931-17.563-17.7L523.04,441.943h16.394c49.253,0,68.787,43.473,68.787,67.135,0,51.957-49.119,61.438-68.482,61.438h-35.87q-9.615-.335-13.559-2.737c-2.623-1.607-3.95-5.837-3.95-12.706V389.264c.221-8.3,2.626-13.258,6.961-16.886v-2.135H468.325v2.135c4.177,3.5,6.565,8.234,6.928,16V554.02c0,9.069-2.433,14.34-6.982,18.15V574.3h71.47c63.381,0,80.971-36.255,80.971-64.708A64.606,64.606,0,0,0,615.16,483.341Z" transform="translate(-429.78 -314.84)" fill="#2e3740"/>
</svg>
